<svg xmlns="http://www.w3.org/2000/svg" viewBox="0 0 231 231"><path  d="m 29.151039,0.8024486 c 5.308122,13.1555354 6.247478,23.7805314 3.011913,33.9999834 -1.177928,3.730927 -1.595415,4.720428 -6.530779,15.118325 -0.954271,2.011447 -1.968175,4.266218 -2.266386,5.028629 -3.056647,7.688924 -4.025824,14.274798 -3.205748,21.590638 1.118286,9.732825 3.459225,15.021005 8.484049,19.141224 5.397577,4.412222 13.911448,6.699432 24.840802,6.683212 2.29621,0 4.726613,-0.11352 6.336938,-0.27577 3.936362,-0.42175 6.053644,-0.50286 6.18784,-0.27577 0.283298,0.5191 -0.984089,1.28149 -6.18784,3.74714 -6.053638,2.85497 -16.32694,7.81871 -16.446224,7.94848 -0.328026,0.30821 5.949272,2.98474 8.916449,3.79579 5.725611,1.57347 10.974097,1.68704 16.133106,0.35688 1.863804,-0.47043 1.998001,-0.081 0.939362,2.67651 -4.443318,11.56585 -5.725618,20.89313 -3.742522,27.20326 0.611324,1.89791 1.252474,3.00094 2.698786,4.57444 0.999003,1.10304 1.550689,1.54099 2.609329,2.14121 0.745522,0.40551 1.684881,0.85972 2.117284,1.00571 1.252478,0.45421 4.488044,2.271 6.068553,3.42272 2.40058,1.73567 4.279298,3.53625 8.305119,7.98093 3.921444,4.33106 5.069553,5.35303 6.694793,6.05057 1.580505,0.66508 1.491041,0.48661 1.491041,3.21182 0,5.96947 1.416494,10.05724 4.413476,12.74998 1.72962,1.55726 3.48906,2.40074 6.88863,3.32538 l 1.83399,0.50287 h 7.24649 c 6.36677,0 7.29122,-0.0326 7.51486,-0.25953 0.13422,-0.12978 0.90955,-0.42176 1.71472,-0.63265 6.36673,-1.70323 9.75143,-7.1212 9.75143,-15.60496 0,-2.49808 0.0893,-2.70896 1.49105,-3.29291 1.65506,-0.69754 2.78824,-1.71951 6.56058,-5.88836 6.81408,-7.52674 9.03572,-9.2462 15.43231,-11.95516 5.44233,-2.30343 7.96219,-7.73761 7.38067,-15.99428 -0.35785,-5.20704 -1.5805,-10.33301 -4.04072,-17.04866 -0.74551,-2.01145 -1.32701,-3.76335 -1.29721,-3.89312 0.10442,-0.56777 0.50697,-0.63265 1.86383,-0.24333 2.57949,0.71374 4.20474,0.87594 7.49992,0.79484 4.01091,-0.11364 7.64906,-0.79484 11.63016,-2.23854 2.50493,-0.89219 5.66597,-2.40076 5.66597,-2.70896 0,-0.11363 -3.0119,-1.5735 -15.35775,-7.51049 -7.33592,-3.50383 -8.34987,-4.10402 -7.91744,-4.57443 0.0745,-0.081 1.58049,0.0162 3.83197,0.27576 11.24247,1.26525 19.17483,0.76238 26.07836,-1.67081 7.79818,-2.725176 13.01683,-8.045805 15.2832,-15.588737 1.89362,-6.261455 2.11731,-13.301529 0.65607,-20.422712 -1.07354,-5.190842 -2.72859,-9.700382 -7.17192,-19.400755 -3.36974,-7.380725 -4.71168,-10.965659 -5.38266,-14.355924 -1.53579,-7.786254 -0.13419,-18.281481 3.77234,-28.2251774 0.2833,-0.7299629 0.50695,-1.3788229 0.46223,-1.4112606 -0.13419,-0.1459927 -2.40059,2.0276729 -4.1302,3.9580146 -5.65107,6.3587764 -9.40849,13.2366354 -10.66098,19.5791954 -0.32802,1.62214 -0.4324,4.915077 -0.22365,6.666991 0.38768,3.1145 0.83498,4.801516 4.33894,15.815829 1.52087,4.817748 2.44532,8.354007 2.93738,11.192743 0.19382,1.151716 0.25347,2.36833 0.25347,4.785304 0,3.000961 -0.0298,3.357823 -0.4026,4.866413 -0.76043,3.049624 -2.84789,6.845417 -4.20475,7.607826 -0.47714,0.275768 -0.86479,0.340643 -1.93835,0.324422 -2.13217,0 -4.05565,-0.697514 -11.45123,-4.104003 -7.35083,-3.390265 -12.03272,-5.207064 -16.40149,-6.374991 -2.80316,-0.746192 -2.5497,-0.567763 -3.81706,-2.725195 -1.68491,-2.854964 -5.33795,-5.693709 -9.97509,-7.688935 -1.56559,-0.681302 -5.20376,-1.865452 -6.96319,-2.287212 -1.6998,-0.389317 -2.14711,-0.551523 -2.29621,-0.859729 -0.35786,-0.746191 0.29821,-1.216605 3.19084,-2.36832 2.04272,-0.827299 2.02782,-0.811076 1.19284,-0.875951 -1.11831,-0.08116 -4.71171,0.243311 -6.79916,0.632628 -5.65106,1.038166 -12.07747,3.584922 -17.48996,6.910303 l -1.17793,0.729958 -3.22066,-1.768124 c -5.68088,-3.146945 -10.39259,-4.898858 -15.715619,-5.88836 -1.997997,-0.373094 -5.621232,-0.697525 -6.739516,-0.616405 l -0.745526,0.04866 1.341936,0.551531 c 3.310119,1.346374 3.951273,1.735681 3.951273,2.352099 0,0.454202 -0.342943,0.665071 -1.431412,0.908394 -2.818062,0.600187 -6.91844,2.04389 -9.736515,3.390275 -4.055642,1.946562 -7.261387,4.736632 -8.573508,7.478045 -0.670971,1.362597 -0.715704,1.395041 -3.518867,2.108777 -3.787249,0.957059 -9.468137,3.163164 -16.103278,6.24523 -9.289213,4.298661 -11.570511,4.947512 -13.553601,3.876911 -1.625238,-0.892183 -3.608326,-4.6231 -4.443314,-8.370228 -0.372761,-1.638371 -0.357849,-6.699424 0,-8.889317 0.641145,-3.763359 1.550689,-6.991409 4.54769,-16.059153 C 43.92729,34.315802 44.628087,30.633551 44.300052,26.740427 43.718543,19.797681 39.976026,12.189863 33.594353,4.9551321 31.909473,3.0572318 29.434338,0.6077998 29.18086,0.6077998 c -0.05961,0 -0.07456,0.097322 -0.02984,0.1946607 z"  style="fill:#93C8BF;stroke:none;stroke-width:0.0155521" /><path d="m30.622 70.381c2.0971-3.9374 4.6649-7.9604 7.6822-12.037 3.0172-4.0765 6.0987-7.6929 9.2229-10.817l22.897 22.897c-4.4402 4.4403-8.2278 9.5439-11.213 15.14z" style="fill:#dd104f;"/><path d="m160.58 70.423 22.907-22.897c3.1242 3.1242 6.2056 6.7406 9.2229 10.817 3.0065 4.0765 5.5744 8.0994 7.6715 12.037l-28.578 15.182c-2.9851-5.5958-6.7727-10.689-11.224-15.14z" style="fill:#dd104f;"/><path d="m92.411 15.247c3.8197-0.87736 7.6715-1.5407 11.534-1.9794 4.0765-0.46007 7.9282-0.69546 11.555-0.69546 1.53 0 3.1563 0.0428 4.8682 0.1391l1.851 22.255 5.767-21.57c3.1028 0.37449 6.0666 0.86666 8.8912 1.4658l-10.55 49.763c-1.9259-0.41729-3.702-0.70617-5.3176-0.87736-1.423-0.14979-3.2633-0.22468-5.5102-0.22468-2.2362 0-4.237 0.10699-5.981 0.29958-1.9473 0.22469-3.8732 0.55636-5.767 0.99504z" style="fill:#f73b6c;"/><path d="m92.411 15.247c1.9152-0.43869 4.023-0.84526 6.3233-1.2304 2.065-0.34238 4.1514-0.62057 6.2698-0.84525l5.1785 50.565c-1.0913 0.10699-2.1827 0.25679-3.2954 0.43868-0.86665 0.14979-1.9152 0.36378-3.1349 0.64196z" style="fill:#dd104f;"/><path d="m83.739 83.92h63.533a19.101 19.1 0 0 1 19.051 19 19.111 19.11 0 0 1-19.051 19h-63.533a19.091 19.09 0 0 1-19.001-19 19.091 19.09 0 0 1 19.001-19z" style="fill:#000;"/><path d="m140.23 93.54a9.3804 9.38 0 1 0 9.3804 9.38 9.3804 9.38 0 0 0-9.3804-9.38zm-49.402 0a9.3804 9.38 0 1 0 9.3804 9.38 9.3904 9.39 0 0 0-9.3804-9.38z" style="fill:none;"/><rect x="79.795" y="98.627" width="71.471" height="8.5859" ry="4.2929" style="fill:#00FFFF;"/><path d="m118.05 148.38c-1.5064 0.59192-2.595 2.0264-2.6191 3.9863-0.0574 1.3977 0.53421 3.5611 3.6758 5.7949 8.0544 4.9446 21.507 3.6862 21.255-7.1658-4.664 4.8219-10.021 5.6377-14.773 0.73907-1.2328-1.1599-2.3694-2.4032-3.9294-3.1408-1.0946-0.50424-2.2257-0.61071-3.6096-0.21337z" style="fill:#50230a;"/><path d="m133.61 154.93c3.0731-0.48816 5.5702-2.8457 5.4438-4.5059-0.47801-4.8311-5.7317-3.0917-4.3369-0.31405-2.8103-1.4445-1.8343-3.8862 0.50427-4.7324 2.0509-0.79942 5.0937 0.34314 6.2002 2.6376 2.2229 7.3422-3.4376 11.68-10.384 12.561z" style="fill:#50230a;"/><path d="m112.81 148.38c1.5064 0.59192 2.595 2.0264 2.6191 3.9863 0.0574 1.3977-0.53421 3.5611-3.6758 5.7949-8.0544 4.9446-21.507 3.6862-21.255-7.1658 4.664 4.8219 10.021 5.6377 14.773 0.73907 1.2328-1.1599 2.3694-2.4032 3.9294-3.1408 1.0946-0.50424 2.2257-0.61071 3.6096-0.21337z" style="fill:#50230a;"/><path d="m97.252 154.93c-3.0731-0.48816-5.5702-2.8457-5.4438-4.5059 0.47801-4.8311 5.7317-3.0917 4.3369-0.31405 2.8103-1.4445 1.8343-3.8862-0.50427-4.7324-2.0509-0.79942-5.0937 0.34314-6.2002 2.6376-2.2229 7.3422 3.4376 11.68 10.384 12.561z" style="fill:#50230a;"/></svg>