<svg xmlns="http://www.w3.org/2000/svg" viewBox="0 0 231 231"><path  d="m 29.151039,0.8024486 c 5.308122,13.1555354 6.247478,23.7805314 3.011913,33.9999834 -1.177928,3.730927 -1.595415,4.720428 -6.530779,15.118325 -0.954271,2.011447 -1.968175,4.266218 -2.266386,5.028629 -3.056647,7.688924 -4.025824,14.274798 -3.205748,21.590638 1.118286,9.732825 3.459225,15.021005 8.484049,19.141224 5.397577,4.412222 13.911448,6.699432 24.840802,6.683212 2.29621,0 4.726613,-0.11352 6.336938,-0.27577 3.936362,-0.42175 6.053644,-0.50286 6.18784,-0.27577 0.283298,0.5191 -0.984089,1.28149 -6.18784,3.74714 -6.053638,2.85497 -16.32694,7.81871 -16.446224,7.94848 -0.328026,0.30821 5.949272,2.98474 8.916449,3.79579 5.725611,1.57347 10.974097,1.68704 16.133106,0.35688 1.863804,-0.47043 1.998001,-0.081 0.939362,2.67651 -4.443318,11.56585 -5.725618,20.89313 -3.742522,27.20326 0.611324,1.89791 1.252474,3.00094 2.698786,4.57444 0.999003,1.10304 1.550689,1.54099 2.609329,2.14121 0.745522,0.40551 1.684881,0.85972 2.117284,1.00571 1.252478,0.45421 4.488044,2.271 6.068553,3.42272 2.40058,1.73567 4.279298,3.53625 8.305119,7.98093 3.921444,4.33106 5.069553,5.35303 6.694793,6.05057 1.580505,0.66508 1.491041,0.48661 1.491041,3.21182 0,5.96947 1.416494,10.05724 4.413476,12.74998 1.72962,1.55726 3.48906,2.40074 6.88863,3.32538 l 1.83399,0.50287 h 7.24649 c 6.36677,0 7.29122,-0.0326 7.51486,-0.25953 0.13422,-0.12978 0.90955,-0.42176 1.71472,-0.63265 6.36673,-1.70323 9.75143,-7.1212 9.75143,-15.60496 0,-2.49808 0.0893,-2.70896 1.49105,-3.29291 1.65506,-0.69754 2.78824,-1.71951 6.56058,-5.88836 6.81408,-7.52674 9.03572,-9.2462 15.43231,-11.95516 5.44233,-2.30343 7.96219,-7.73761 7.38067,-15.99428 -0.35785,-5.20704 -1.5805,-10.33301 -4.04072,-17.04866 -0.74551,-2.01145 -1.32701,-3.76335 -1.29721,-3.89312 0.10442,-0.56777 0.50697,-0.63265 1.86383,-0.24333 2.57949,0.71374 4.20474,0.87594 7.49992,0.79484 4.01091,-0.11364 7.64906,-0.79484 11.63016,-2.23854 2.50493,-0.89219 5.66597,-2.40076 5.66597,-2.70896 0,-0.11363 -3.0119,-1.5735 -15.35775,-7.51049 -7.33592,-3.50383 -8.34987,-4.10402 -7.91744,-4.57443 0.0745,-0.081 1.58049,0.0162 3.83197,0.27576 11.24247,1.26525 19.17483,0.76238 26.07836,-1.67081 7.79818,-2.725176 13.01683,-8.045805 15.2832,-15.588737 1.89362,-6.261455 2.11731,-13.301529 0.65607,-20.422712 -1.07354,-5.190842 -2.72859,-9.700382 -7.17192,-19.400755 -3.36974,-7.380725 -4.71168,-10.965659 -5.38266,-14.355924 -1.53579,-7.786254 -0.13419,-18.281481 3.77234,-28.2251774 0.2833,-0.7299629 0.50695,-1.3788229 0.46223,-1.4112606 -0.13419,-0.1459927 -2.40059,2.0276729 -4.1302,3.9580146 -5.65107,6.3587764 -9.40849,13.2366354 -10.66098,19.5791954 -0.32802,1.62214 -0.4324,4.915077 -0.22365,6.666991 0.38768,3.1145 0.83498,4.801516 4.33894,15.815829 1.52087,4.817748 2.44532,8.354007 2.93738,11.192743 0.19382,1.151716 0.25347,2.36833 0.25347,4.785304 0,3.000961 -0.0298,3.357823 -0.4026,4.866413 -0.76043,3.049624 -2.84789,6.845417 -4.20475,7.607826 -0.47714,0.275768 -0.86479,0.340643 -1.93835,0.324422 -2.13217,0 -4.05565,-0.697514 -11.45123,-4.104003 -7.35083,-3.390265 -12.03272,-5.207064 -16.40149,-6.374991 -2.80316,-0.746192 -2.5497,-0.567763 -3.81706,-2.725195 -1.68491,-2.854964 -5.33795,-5.693709 -9.97509,-7.688935 -1.56559,-0.681302 -5.20376,-1.865452 -6.96319,-2.287212 -1.6998,-0.389317 -2.14711,-0.551523 -2.29621,-0.859729 -0.35786,-0.746191 0.29821,-1.216605 3.19084,-2.36832 2.04272,-0.827299 2.02782,-0.811076 1.19284,-0.875951 -1.11831,-0.08116 -4.71171,0.243311 -6.79916,0.632628 -5.65106,1.038166 -12.07747,3.584922 -17.48996,6.910303 l -1.17793,0.729958 -3.22066,-1.768124 c -5.68088,-3.146945 -10.39259,-4.898858 -15.715619,-5.88836 -1.997997,-0.373094 -5.621232,-0.697525 -6.739516,-0.616405 l -0.745526,0.04866 1.341936,0.551531 c 3.310119,1.346374 3.951273,1.735681 3.951273,2.352099 0,0.454202 -0.342943,0.665071 -1.431412,0.908394 -2.818062,0.600187 -6.91844,2.04389 -9.736515,3.390275 -4.055642,1.946562 -7.261387,4.736632 -8.573508,7.478045 -0.670971,1.362597 -0.715704,1.395041 -3.518867,2.108777 -3.787249,0.957059 -9.468137,3.163164 -16.103278,6.24523 -9.289213,4.298661 -11.570511,4.947512 -13.553601,3.876911 -1.625238,-0.892183 -3.608326,-4.6231 -4.443314,-8.370228 -0.372761,-1.638371 -0.357849,-6.699424 0,-8.889317 0.641145,-3.763359 1.550689,-6.991409 4.54769,-16.059153 C 43.92729,34.315802 44.628087,30.633551 44.300052,26.740427 43.718543,19.797681 39.976026,12.189863 33.594353,4.9551321 31.909473,3.0572318 29.434338,0.6077998 29.18086,0.6077998 c -0.05961,0 -0.07456,0.097322 -0.02984,0.1946607 z"  style="fill:#EF7536;stroke:none;stroke-width:0.0155521" /><path d="m109.99 15.57c-13.46 3.6301-19.789 11.95-24.069 24.08-6.9996-7-8.7307-10.82-7.5606-21.43a41 41 0 0 0-9.2698 24.988c0.0366 7.6776 5.6462 13.939 12.697 15.297-13.315 5.8106-15.258 22.033-14.045 33.524 5.7687-11.861 14.254-20.981 27.258-22.951-0.43017 6.6-2.5099 10.22-7.29 17.66 18.29-2.8601 25.119-7.8199 37.15-18.24 0.46001 0 1.0001 0.089 1.4606 0.12058-0.33023 3.5601-1.0906 6.5598-5.0004 12.46 9.5298-1.32 14.721-5.8006 17.539-11.671 8.8862 0.95314 15.836 6.785 21.26 14.818 1.928-15.211-4.4766-26.6-19.807-34.036 1.4167-2.6974 8.0143-11.925 17.661-15.721-1.424-0.28569-2.8883-0.49486-4.4033-0.61125-5.71-0.41992-13.62-0.99982-24.89 4.1703 2.8501-8.5101 10.21-11 18.05-13.12-15.131-1.2501-28.61-2.5898-40.53 8.1801-1.8997-6.21-0.18055-12.54 3.7889-17.52z" style="fill:#fff539;"/><path d="m172.63 69.954c1.2292 14.064 0.93841 29.96 0.34635 45.169 1.7887 6.796 3.0379 13.235 3.8842 18.388l0.13973-0.011c1.0001 6.56 2.3597 13.18 3.2698 19.73 2.0002-6.5699 2.5303-18.25 3.2405-25.43 1.2597-13 1.8296-29.311-0.43017-41.931-0.85041-4.72-2.0007-7.6896-2.0007-8.4796 4.6205 3.5601 8.6606 9.2204 13.001 14.15-0.6751-3.4318-1.347-6.6004-2.0567-9.5273-4.047-5.7183-13.726-12.154-19.393-12.06z" style="fill:none;"/><path d="m157.97 34.471c-10.339 2.7579-17.715 13.543-19.132 16.24 15.33 7.4361 20.783 17.96 21.278 33.517 5.9534 8.8179 10.066 20.289 12.857 30.895 0.87636-13.178 1.8186-27.726 0.26566-44.28 2.5698 0.44857 9.1372 1.3934 18.781 11.17-2.1158-8.7321-4.5671-15.31-8.4539-20.283-4.5598-5.8401-10.999-10.431-23.809-13 9.6502-3.34 16.27-0.76993 25.5 2.1301-8.1388-7.4315-16.474-14.219-27.287-16.389z" style="fill:#fff539;"/><path d="m61.473 73.354c-7.256-0.77501-13.024 2.3746-16.262 5.3879 0.73789-0.45409 1.3868-0.74208 1.8489-0.74208 0 0-1.5198 10.359-1.6197 11.519-1.56 19.73 0.99957 43.401 6.37 62.471 1.3099 4.6899 1.1895 3.0893 1.8898-0.9107 1.7526-10.061 3.3891-24.703 6.9739-38.864-5.068-17.627-4.2508-32.403 0.79937-38.861z" style="fill:none;"/><path d="m69.09 43.21c-0.0253 1.0803-8e-3 2.1612 0.0523 3.2402-3.8402 0-12.46 0.71984-16 2.1598-4.4504 1.8001-8.48 5.4801-11.67 11.83 7.2999-3.94 11.899-3.8502 16.66-1.8102-10.39 3.45-19.52 11.37-20.32 26.9 1.1456-1.5053 4.6079-4.9789 7.1393-6.6285 0.09-0.0587 0.17427-0.10556 0.26167-0.15946 3.7141-2.3211 9.0494-5.1247 15.181-4.9553-5.0501 6.4577-6.6824 20.434 0.28207 38.428 1.7866-7.0567 4.0574-13.994 7.0681-20.184-1e-3 -11.664 2.0764-27.774 15.391-33.585-7.0508-2.1538-12.709-7.991-14.043-15.236z" style="fill:#fff539;"/><path d="m172.7 90.75h-6.54c-0.14-0.1-0.26-0.22-0.4-0.3-4.48-2.76-22.75-2.11-33.71 1.2-1 0.3-1.91 0.61-2.75 0.94-1.8937 0.79244-3.8739 1.3597-5.9 1.69-5.5051 0.79002-10.403 0.79002-15.908 0-2.0261-0.33034-4.0063-0.89756-5.9-1.69-0.84-0.33-1.76-0.64-2.75-0.94-11-3.31-29.23-4-33.71-1.2-0.13832 0.08869-0.2688 0.18906-0.39 0.3h-6.55c-1.1046 0-2 0.89543-2 2v4.66c-0.0013 0.98185 0.49088 1.8986 1.31 2.44l1.9 1.27c0.59238 0.38889 0.93475 1.0622 0.9 1.77-0.14175 5.4854 0.88072 10.939 3 16 3.58 8.38 16 10.9 24.93 10.9 2.6976 0.0771 5.3921-0.2361 8-0.93 4.35-1.43 8.24-7.36 10.45-12.42 1.7607-3.8506 2.7493-8.009 2.91-12.24 7.3e-4 -0.7138 0.38183-1.3731 1-1.73 3.2281-1.951 6.5798-1.951 9.8079 0 0.61817 0.3569 0.99927 1.0162 1 1.73 0.16067 4.231 1.1493 8.3894 2.91 12.24 2.21 5.06 6.1 11 10.45 12.42 2.6079 0.6939 5.3024 1.0071 8 0.93 8.92 0 21.35-2.52 24.93-10.9 2.1193-5.0614 3.1418-10.515 3-16-0.0348-0.70778 0.30762-1.3811 0.9-1.77l1.9-1.27c0.81913-0.54136 1.3113-1.4582 1.31-2.44v-4.6c0.0336-1.1048-0.83521-2.0274-1.94-2.06z" style="fill:#000;stroke-linecap:round;stroke-linejoin:round;stroke-width:2.5;stroke:magenta;"/><path d="m115.68 160.64c7.08 0 13.11-4.93 15.46-11.84a2.14 2.14 0 0 0-1.51-2.6101 2.3 2.3 0 0 0-0.73995-0.0593h-26.42a2.12 2.12 0 0 0-2.31 1.9099 1.85 1.85 0 0 0 0.0593 0.73995c2.3401 6.9301 8.3802 11.86 15.46 11.86z" style="fill:#1a1a1a;"/></svg>